<?xml version="1.0" encoding="UTF-8"?>
<svg id="Layer_2" data-name="Layer 2" xmlns="http://www.w3.org/2000/svg" viewBox="0 0 23.43 28.28">
  <defs>
    <linearGradient id="linear-gradient" x1=".25" y1="14.14" x2="23.18" y2="14.14" gradientUnits="userSpaceOnUse">
      <stop offset="0" stop-color="#201549"/>
      <stop offset="1" stop-color="#000"/>
    </linearGradient>
  </defs>
  <g id="Logo">
    <path d="M3.7,27.77L.25,1.36c-.02-.16.09-.3.24-.33l3.99-.72c.17-.03.33.09.35.26l1.72,19.12c.05.66.11,1.51.17,2.54.06,1.03.1,1.9.1,2.61.08-.71.16-1.58.25-2.61.09-1.03.17-1.87.25-2.54L9.73.51c.02-.15.14-.26.29-.26h3.56c.15,0,.28.11.29.26l2.26,19.18c.08.66.17,1.51.29,2.54s.21,1.9.29,2.61c.02-.71.07-1.58.13-2.61.06-1.03.12-1.87.17-2.54L18.69.57c.02-.17.18-.3.35-.26l3.9.72c.16.03.26.17.24.33l-3.54,26.41c-.02.17-.18.28-.35.25l-4.74-.9c-.13-.02-.22-.13-.24-.26l-2.11-18.3c-.08-.74-.15-1.63-.23-2.69-.08-1.05-.14-1.92-.19-2.61-.05.69-.11,1.56-.19,2.61-.08,1.06-.15,1.95-.23,2.69l-2.3,18.31c-.02.13-.11.23-.24.25l-4.78.9c-.17.03-.33-.08-.35-.25Z" fill="url(#linear-gradient)" stroke="#6a7aff" stroke-miterlimit="10" stroke-width=".5"/>
  </g>
</svg>